<?xml version="1.0" encoding="UTF-8" standalone="no"?>
<!DOCTYPE svg PUBLIC "-//W3C//DTD SVG 1.1//EN"
 "http://www.w3.org/Graphics/SVG/1.1/DTD/svg11.dtd">
<!-- Generated by graphviz version 2.50.0 (20211204.2007)
 -->
<!-- Title: G Pages: 1 -->
<svg width="1338pt" height="3342pt"
 viewBox="0.00 0.00 321.00 802.00" xmlns="http://www.w3.org/2000/svg" xmlns:xlink="http://www.w3.org/1999/xlink">
<g id="graph0" class="graph" transform="scale(4.17 4.17) rotate(0) translate(4 798)">
<title>G</title>
<polygon fill="white" stroke="transparent" points="-4,4 -4,-798 317,-798 317,4 -4,4"/>
<!-- 2721618645200 -->
<g id="node1" class="node">
<title>2721618645200</title>
<polygon fill="none" stroke="black" points="0,-747.5 0,-793.5 313,-793.5 313,-747.5 0,-747.5"/>
<text text-anchor="middle" x="82" y="-766.8" font-family="Times New Roman,serif" font-size="14.00">lstm_26_input: InputLayer</text>
<polyline fill="none" stroke="black" points="164,-747.5 164,-793.5 "/>
<text text-anchor="middle" x="192" y="-778.3" font-family="Times New Roman,serif" font-size="14.00">input:</text>
<polyline fill="none" stroke="black" points="164,-770.5 220,-770.5 "/>
<text text-anchor="middle" x="192" y="-755.3" font-family="Times New Roman,serif" font-size="14.00">output:</text>
<polyline fill="none" stroke="black" points="220,-747.5 220,-793.5 "/>
<text text-anchor="middle" x="266.5" y="-778.3" font-family="Times New Roman,serif" font-size="14.00">[(None, 1, 7)]</text>
<polyline fill="none" stroke="black" points="220,-770.5 313,-770.5 "/>
<text text-anchor="middle" x="266.5" y="-755.3" font-family="Times New Roman,serif" font-size="14.00">[(None, 1, 7)]</text>
</g>
<!-- 2721549864768 -->
<g id="node2" class="node">
<title>2721549864768</title>
<polygon fill="none" stroke="black" points="27,-664.5 27,-710.5 286,-710.5 286,-664.5 27,-664.5"/>
<text text-anchor="middle" x="79.5" y="-683.8" font-family="Times New Roman,serif" font-size="14.00">lstm_26: LSTM</text>
<polyline fill="none" stroke="black" points="132,-664.5 132,-710.5 "/>
<text text-anchor="middle" x="160" y="-695.3" font-family="Times New Roman,serif" font-size="14.00">input:</text>
<polyline fill="none" stroke="black" points="132,-687.5 188,-687.5 "/>
<text text-anchor="middle" x="160" y="-672.3" font-family="Times New Roman,serif" font-size="14.00">output:</text>
<polyline fill="none" stroke="black" points="188,-664.5 188,-710.5 "/>
<text text-anchor="middle" x="237" y="-695.3" font-family="Times New Roman,serif" font-size="14.00">(None, 1, 7)</text>
<polyline fill="none" stroke="black" points="188,-687.5 286,-687.5 "/>
<text text-anchor="middle" x="237" y="-672.3" font-family="Times New Roman,serif" font-size="14.00">(None, 1, 170)</text>
</g>
<!-- 2721618645200&#45;&gt;2721549864768 -->
<g id="edge1" class="edge">
<title>2721618645200&#45;&gt;2721549864768</title>
<path fill="none" stroke="black" d="M156.5,-747.37C156.5,-739.15 156.5,-729.66 156.5,-720.73"/>
<polygon fill="black" stroke="black" points="160,-720.61 156.5,-710.61 153,-720.61 160,-720.61"/>
</g>
<!-- 2721549954976 -->
<g id="node3" class="node">
<title>2721549954976</title>
<polygon fill="none" stroke="black" points="11,-581.5 11,-627.5 302,-627.5 302,-581.5 11,-581.5"/>
<text text-anchor="middle" x="79.5" y="-600.8" font-family="Times New Roman,serif" font-size="14.00">dropout_43: Dropout</text>
<polyline fill="none" stroke="black" points="148,-581.5 148,-627.5 "/>
<text text-anchor="middle" x="176" y="-612.3" font-family="Times New Roman,serif" font-size="14.00">input:</text>
<polyline fill="none" stroke="black" points="148,-604.5 204,-604.5 "/>
<text text-anchor="middle" x="176" y="-589.3" font-family="Times New Roman,serif" font-size="14.00">output:</text>
<polyline fill="none" stroke="black" points="204,-581.5 204,-627.5 "/>
<text text-anchor="middle" x="253" y="-612.3" font-family="Times New Roman,serif" font-size="14.00">(None, 1, 170)</text>
<polyline fill="none" stroke="black" points="204,-604.5 302,-604.5 "/>
<text text-anchor="middle" x="253" y="-589.3" font-family="Times New Roman,serif" font-size="14.00">(None, 1, 170)</text>
</g>
<!-- 2721549864768&#45;&gt;2721549954976 -->
<g id="edge2" class="edge">
<title>2721549864768&#45;&gt;2721549954976</title>
<path fill="none" stroke="black" d="M156.5,-664.37C156.5,-656.15 156.5,-646.66 156.5,-637.73"/>
<polygon fill="black" stroke="black" points="160,-637.61 156.5,-627.61 153,-637.61 160,-637.61"/>
</g>
<!-- 2721550881360 -->
<g id="node4" class="node">
<title>2721550881360</title>
<polygon fill="none" stroke="black" points="27,-498.5 27,-544.5 286,-544.5 286,-498.5 27,-498.5"/>
<text text-anchor="middle" x="79.5" y="-517.8" font-family="Times New Roman,serif" font-size="14.00">lstm_27: LSTM</text>
<polyline fill="none" stroke="black" points="132,-498.5 132,-544.5 "/>
<text text-anchor="middle" x="160" y="-529.3" font-family="Times New Roman,serif" font-size="14.00">input:</text>
<polyline fill="none" stroke="black" points="132,-521.5 188,-521.5 "/>
<text text-anchor="middle" x="160" y="-506.3" font-family="Times New Roman,serif" font-size="14.00">output:</text>
<polyline fill="none" stroke="black" points="188,-498.5 188,-544.5 "/>
<text text-anchor="middle" x="237" y="-529.3" font-family="Times New Roman,serif" font-size="14.00">(None, 1, 170)</text>
<polyline fill="none" stroke="black" points="188,-521.5 286,-521.5 "/>
<text text-anchor="middle" x="237" y="-506.3" font-family="Times New Roman,serif" font-size="14.00">(None, 1, 170)</text>
</g>
<!-- 2721549954976&#45;&gt;2721550881360 -->
<g id="edge3" class="edge">
<title>2721549954976&#45;&gt;2721550881360</title>
<path fill="none" stroke="black" d="M156.5,-581.37C156.5,-573.15 156.5,-563.66 156.5,-554.73"/>
<polygon fill="black" stroke="black" points="160,-554.61 156.5,-544.61 153,-554.61 160,-554.61"/>
</g>
<!-- 2721550968912 -->
<g id="node5" class="node">
<title>2721550968912</title>
<polygon fill="none" stroke="black" points="11,-415.5 11,-461.5 302,-461.5 302,-415.5 11,-415.5"/>
<text text-anchor="middle" x="79.5" y="-434.8" font-family="Times New Roman,serif" font-size="14.00">dropout_44: Dropout</text>
<polyline fill="none" stroke="black" points="148,-415.5 148,-461.5 "/>
<text text-anchor="middle" x="176" y="-446.3" font-family="Times New Roman,serif" font-size="14.00">input:</text>
<polyline fill="none" stroke="black" points="148,-438.5 204,-438.5 "/>
<text text-anchor="middle" x="176" y="-423.3" font-family="Times New Roman,serif" font-size="14.00">output:</text>
<polyline fill="none" stroke="black" points="204,-415.5 204,-461.5 "/>
<text text-anchor="middle" x="253" y="-446.3" font-family="Times New Roman,serif" font-size="14.00">(None, 1, 170)</text>
<polyline fill="none" stroke="black" points="204,-438.5 302,-438.5 "/>
<text text-anchor="middle" x="253" y="-423.3" font-family="Times New Roman,serif" font-size="14.00">(None, 1, 170)</text>
</g>
<!-- 2721550881360&#45;&gt;2721550968912 -->
<g id="edge4" class="edge">
<title>2721550881360&#45;&gt;2721550968912</title>
<path fill="none" stroke="black" d="M156.5,-498.37C156.5,-490.15 156.5,-480.66 156.5,-471.73"/>
<polygon fill="black" stroke="black" points="160,-471.61 156.5,-461.61 153,-471.61 160,-471.61"/>
</g>
<!-- 2721550968096 -->
<g id="node6" class="node">
<title>2721550968096</title>
<polygon fill="none" stroke="black" points="27,-332.5 27,-378.5 286,-378.5 286,-332.5 27,-332.5"/>
<text text-anchor="middle" x="79.5" y="-351.8" font-family="Times New Roman,serif" font-size="14.00">lstm_28: LSTM</text>
<polyline fill="none" stroke="black" points="132,-332.5 132,-378.5 "/>
<text text-anchor="middle" x="160" y="-363.3" font-family="Times New Roman,serif" font-size="14.00">input:</text>
<polyline fill="none" stroke="black" points="132,-355.5 188,-355.5 "/>
<text text-anchor="middle" x="160" y="-340.3" font-family="Times New Roman,serif" font-size="14.00">output:</text>
<polyline fill="none" stroke="black" points="188,-332.5 188,-378.5 "/>
<text text-anchor="middle" x="237" y="-363.3" font-family="Times New Roman,serif" font-size="14.00">(None, 1, 170)</text>
<polyline fill="none" stroke="black" points="188,-355.5 286,-355.5 "/>
<text text-anchor="middle" x="237" y="-340.3" font-family="Times New Roman,serif" font-size="14.00">(None, 1, 170)</text>
</g>
<!-- 2721550968912&#45;&gt;2721550968096 -->
<g id="edge5" class="edge">
<title>2721550968912&#45;&gt;2721550968096</title>
<path fill="none" stroke="black" d="M156.5,-415.37C156.5,-407.15 156.5,-397.66 156.5,-388.73"/>
<polygon fill="black" stroke="black" points="160,-388.61 156.5,-378.61 153,-388.61 160,-388.61"/>
</g>
<!-- 2721551006736 -->
<g id="node7" class="node">
<title>2721551006736</title>
<polygon fill="none" stroke="black" points="11,-249.5 11,-295.5 302,-295.5 302,-249.5 11,-249.5"/>
<text text-anchor="middle" x="79.5" y="-268.8" font-family="Times New Roman,serif" font-size="14.00">dropout_45: Dropout</text>
<polyline fill="none" stroke="black" points="148,-249.5 148,-295.5 "/>
<text text-anchor="middle" x="176" y="-280.3" font-family="Times New Roman,serif" font-size="14.00">input:</text>
<polyline fill="none" stroke="black" points="148,-272.5 204,-272.5 "/>
<text text-anchor="middle" x="176" y="-257.3" font-family="Times New Roman,serif" font-size="14.00">output:</text>
<polyline fill="none" stroke="black" points="204,-249.5 204,-295.5 "/>
<text text-anchor="middle" x="253" y="-280.3" font-family="Times New Roman,serif" font-size="14.00">(None, 1, 170)</text>
<polyline fill="none" stroke="black" points="204,-272.5 302,-272.5 "/>
<text text-anchor="middle" x="253" y="-257.3" font-family="Times New Roman,serif" font-size="14.00">(None, 1, 170)</text>
</g>
<!-- 2721550968096&#45;&gt;2721551006736 -->
<g id="edge6" class="edge">
<title>2721550968096&#45;&gt;2721551006736</title>
<path fill="none" stroke="black" d="M156.5,-332.37C156.5,-324.15 156.5,-314.66 156.5,-305.73"/>
<polygon fill="black" stroke="black" points="160,-305.61 156.5,-295.61 153,-305.61 160,-305.61"/>
</g>
<!-- 2721551020816 -->
<g id="node8" class="node">
<title>2721551020816</title>
<polygon fill="none" stroke="black" points="24,-166.5 24,-212.5 289,-212.5 289,-166.5 24,-166.5"/>
<text text-anchor="middle" x="79.5" y="-185.8" font-family="Times New Roman,serif" font-size="14.00">dense_29: Dense</text>
<polyline fill="none" stroke="black" points="135,-166.5 135,-212.5 "/>
<text text-anchor="middle" x="163" y="-197.3" font-family="Times New Roman,serif" font-size="14.00">input:</text>
<polyline fill="none" stroke="black" points="135,-189.5 191,-189.5 "/>
<text text-anchor="middle" x="163" y="-174.3" font-family="Times New Roman,serif" font-size="14.00">output:</text>
<polyline fill="none" stroke="black" points="191,-166.5 191,-212.5 "/>
<text text-anchor="middle" x="240" y="-197.3" font-family="Times New Roman,serif" font-size="14.00">(None, 1, 170)</text>
<polyline fill="none" stroke="black" points="191,-189.5 289,-189.5 "/>
<text text-anchor="middle" x="240" y="-174.3" font-family="Times New Roman,serif" font-size="14.00">(None, 1, 170)</text>
</g>
<!-- 2721551006736&#45;&gt;2721551020816 -->
<g id="edge7" class="edge">
<title>2721551006736&#45;&gt;2721551020816</title>
<path fill="none" stroke="black" d="M156.5,-249.37C156.5,-241.15 156.5,-231.66 156.5,-222.73"/>
<polygon fill="black" stroke="black" points="160,-222.61 156.5,-212.61 153,-222.61 160,-222.61"/>
</g>
<!-- 2721551023600 -->
<g id="node9" class="node">
<title>2721551023600</title>
<polygon fill="none" stroke="black" points="11,-83.5 11,-129.5 302,-129.5 302,-83.5 11,-83.5"/>
<text text-anchor="middle" x="79.5" y="-102.8" font-family="Times New Roman,serif" font-size="14.00">dropout_46: Dropout</text>
<polyline fill="none" stroke="black" points="148,-83.5 148,-129.5 "/>
<text text-anchor="middle" x="176" y="-114.3" font-family="Times New Roman,serif" font-size="14.00">input:</text>
<polyline fill="none" stroke="black" points="148,-106.5 204,-106.5 "/>
<text text-anchor="middle" x="176" y="-91.3" font-family="Times New Roman,serif" font-size="14.00">output:</text>
<polyline fill="none" stroke="black" points="204,-83.5 204,-129.5 "/>
<text text-anchor="middle" x="253" y="-114.3" font-family="Times New Roman,serif" font-size="14.00">(None, 1, 170)</text>
<polyline fill="none" stroke="black" points="204,-106.5 302,-106.5 "/>
<text text-anchor="middle" x="253" y="-91.3" font-family="Times New Roman,serif" font-size="14.00">(None, 1, 170)</text>
</g>
<!-- 2721551020816&#45;&gt;2721551023600 -->
<g id="edge8" class="edge">
<title>2721551020816&#45;&gt;2721551023600</title>
<path fill="none" stroke="black" d="M156.5,-166.37C156.5,-158.15 156.5,-148.66 156.5,-139.73"/>
<polygon fill="black" stroke="black" points="160,-139.61 156.5,-129.61 153,-139.61 160,-139.61"/>
</g>
<!-- 2721551053200 -->
<g id="node10" class="node">
<title>2721551053200</title>
<polygon fill="none" stroke="black" points="24,-0.5 24,-46.5 289,-46.5 289,-0.5 24,-0.5"/>
<text text-anchor="middle" x="79.5" y="-19.8" font-family="Times New Roman,serif" font-size="14.00">dense_30: Dense</text>
<polyline fill="none" stroke="black" points="135,-0.5 135,-46.5 "/>
<text text-anchor="middle" x="163" y="-31.3" font-family="Times New Roman,serif" font-size="14.00">input:</text>
<polyline fill="none" stroke="black" points="135,-23.5 191,-23.5 "/>
<text text-anchor="middle" x="163" y="-8.3" font-family="Times New Roman,serif" font-size="14.00">output:</text>
<polyline fill="none" stroke="black" points="191,-0.5 191,-46.5 "/>
<text text-anchor="middle" x="240" y="-31.3" font-family="Times New Roman,serif" font-size="14.00">(None, 1, 170)</text>
<polyline fill="none" stroke="black" points="191,-23.5 289,-23.5 "/>
<text text-anchor="middle" x="240" y="-8.3" font-family="Times New Roman,serif" font-size="14.00">(None, 1, 1)</text>
</g>
<!-- 2721551023600&#45;&gt;2721551053200 -->
<g id="edge9" class="edge">
<title>2721551023600&#45;&gt;2721551053200</title>
<path fill="none" stroke="black" d="M156.5,-83.37C156.5,-75.15 156.5,-65.66 156.5,-56.73"/>
<polygon fill="black" stroke="black" points="160,-56.61 156.5,-46.61 153,-56.61 160,-56.61"/>
</g>
</g>
</svg>
